# xmcd CD database file
#
# Track frame offsets:
#	150
#	13660
#	26387
#	39182
#	51810
#	62307
#	73222
#	83027
#	96045
#	107662
#	120420
#	132410
#	144805
#	157610
#	170395
#	184867
#	196822
#	208045
#	219255
#	228357
#	240170
#	250052
#	263497
#	272000
#
# Disc length: 3783 seconds
#
# Revision: 0
# Processed by: cddbd v1.5.2PL0 Copyright (c) Steve Scherf et al.
# Submitted via: CDex 1.70beta2
#
DISCID=2a0ec518
DTITLE=Various Artist - Rhythm and Blues
DYEAR=1900
DGENRE=Blues
TTITLE0=Ho Ho - Margie Day
TTITLE1=Baby Likes To Shuffle - Alonzo Scales
TTITLE2=High Low Jack - Buddy Lucas
TTITLE3=Oh! How I Miss You Tonight - Jack McVea
TTITLE4=Let Me Know - Marvin and Johnny
TTITLE5=Getting Ready For My Daddy - Varetta Dillard
TTITLE6=Messed Up - Harold Burrage
TTITLE7=Why I Sing The Blues - Errol Dixon
TTITLE8=Gimme My Money Back - Ernie Holland
TTITLE9=Everybody's Blues - Kae Williams
TTITLE10=Never Let Me Go - The Roamers
TTITLE11=I'm Just A Woman - Pauline Rogers
TTITLE12=Oop-De-Oop - Earl Phillips
TTITLE13=I Ain't Guilty - Crawford Brothers
TTITLE14=Fiddle De Dee - Pee Wee Crayton
TTITLE15=Baby Shame - Little Willie Littlefield
TTITLE16=Them There Eyes - Varetta Dillard
TTITLE17=I Know I Was Wrong - The Barons
TTITLE18=True Love Is Hard To Find - The Rivieras
TTITLE19=Playboy Blues - Roy Milton
TTITLE20=Without You - Clarence Samuels
TTITLE21=Ain't Gonna Play Second No More - Smokey Hogg
TTITLE22=Baby Tell Me - The Willows
TTITLE23=Everybody Loves A Fat Man - Pigmeat Patterson
EXTD=
EXTT0=
EXTT1=
EXTT2=
EXTT3=
EXTT4=
EXTT5=
EXTT6=
EXTT7=
EXTT8=
EXTT9=
EXTT10=
EXTT11=
EXTT12=
EXTT13=
EXTT14=
EXTT15=
EXTT16=
EXTT17=
EXTT18=
EXTT19=
EXTT20=
EXTT21=
EXTT22=
EXTT23=
PLAYORDER=
